<?xml version="1.0" encoding="utf-8"?>
<!-- Generator: Adobe Illustrator 17.1.0, SVG Export Plug-In . SVG Version: 6.00 Build 0)  -->
<!DOCTYPE svg PUBLIC "-//W3C//DTD SVG 1.1//EN" "http://www.w3.org/Graphics/SVG/1.1/DTD/svg11.dtd">
<svg version="1.1" id="Layer_1" xmlns="http://www.w3.org/2000/svg" xmlns:xlink="http://www.w3.org/1999/xlink" x="0px" y="0px"
	 viewBox="0 0 612 792" enable-background="new 0 0 612 792" xml:space="preserve">
<path fill="#010101" d="M394.8,52.6c3.7-1.3,6.3-3.3,8.6-5.9c3.3-3.7,5.6-8.8,5.7-15.4l0.2-13.9l-15.2-0.2c-2.4,0-4.5,2-4.5,4.4
	L389.4,37l11.1,0.1c-0.7,2.3-1.7,4.2-3,5.7c-0.4,0.5-0.7,0.8-1.1,1.2c-2.2,2.1-3,5.4-1.7,8.2L394.8,52.6z"/>
<path fill="#010101" d="M424.7,49.9c0.3-1.1,0.4-2.3,0.4-3.6l-0.2-8.7l-9.5,0.2c-1.6,0-2.8,1.3-2.7,2.9l0.2,9.6h7.6l-0.2,1l-0.7,2
	c-3,7.6-10.8,9.8-10.8,9.8l-0.2,0.1c-4.4,1.6-9.6,1.2-14.3-0.8c-4.7-2-8.4-5.7-9.9-10c-0.8-2.3-1.1-4.7-0.9-7.3
	c0.4-5-2.3-9.8-6.8-11.8l-2.2-1l-0.8,1.9c-3.3,7.1-3.6,15-1,22.3s8.5,13.6,16.3,17c8.2,3.7,17.5,3.9,25.4,0.7
	c11.7-4.8,19.2-16.7,18.4-29.4c-0.2-2.8,1-5.4,3.2-7.2c2.1,8,1.4,16.4-2.3,23.9c-4,8.3-11.1,14.4-19.8,17.4
	c-9.1,3.1-19.2,2-27.5-2.6l-1.8-1l-2,3.5l1.8,1c5.8,3.3,12.3,4.9,18.8,4.9c4.1,0,8.2-0.7,12.1-2c9.8-3.3,17.7-10.2,22.2-19.4
	c4.6-9.3,5.1-19.7,1.7-29.5l-0.7-2.1l-2.1,0.9c-4.7,2.1-7.7,7.2-7.4,12.4c0.7,11-5.8,21.2-15.9,25.3c-6.9,2.8-15,2.6-22.1-0.7
	c-6.7-3-11.8-8.4-14.1-14.7c-2-5.6-2-11.6,0-17.2c2,1.6,3.2,4.1,2.9,6.9c-0.3,3,0.2,6,1.2,8.9c1.9,5.3,6.2,9.9,12.1,12.4
	c5.7,2.4,11.9,2.8,17.3,0.9c7.1-2,11.6-7.5,14.2-14.1"/>
<path fill="#010101" d="M297.7,80.5c-7.1,0-14.1-1.8-20.4-5.3l-2-1.1l2.1-3.9l2,1.1c9.1,5.1,20.1,6.1,30,2.9
	c9.5-3.2,17.1-9.9,21.5-18.9c4-8.2,4.8-17.2,2.5-26c-2.2,1.9-3.5,4.7-3.4,7.7c0.7,13.9-7.3,26.6-20,31.9c-8.4,3.4-17.5,3.3-25.7-0.4
	c-8.2-3.7-14.4-10.4-17.4-18.9c-2.8-8-2.4-16.6,1.1-24.3l0.9-2l2.4,1.1c4.8,2.2,7.8,7.4,7.4,12.8c-0.2,2.7,0.2,5.3,1,7.8
	c1.7,4.8,5.1,8.7,9.7,10.9c4.6,2.2,9.7,2.5,14.4,0.8l2.1-0.7l1.5,4.2l-2.1,0.7c-5.9,2-12.2,1.7-17.8-1s-9.9-7.4-11.9-13.4
	c-1.1-3.2-1.5-6.4-1.3-9.7c0.2-3-0.9-5.7-3.2-7.4c-2.1,6-2.1,12.6,0,18.7c2.6,7.4,7.9,13.1,15,16.3c7.1,3.2,15,3.3,22.1,0.3
	c11-4.6,18-15.6,17.2-27.5c-0.3-5.7,3-11,8.1-13.4l2.3-1l0.8,2.3c3.7,10.6,3.1,22-1.9,32S321.6,74.8,311,78.3
	C306.7,79.8,302.2,80.5,297.7,80.5z"/>
<path fill="#010101" d="M284.2,39.5c0,7.4,6,13.5,13.5,13.5s13.5-6,13.5-13.5s-6-13.5-13.5-13.5C290.2,26,284.2,32.1,284.2,39.5"/>
<g>
	<circle fill="#010101" cx="193.5" cy="44" r="3.7"/>
	<path fill="#010101" d="M232.8,30l-0.8-2.3l-2.3,1c-5.2,2.3-8.5,7.7-8.1,13.4c0.7,11.9-6.2,23-17.2,27.5c-7.2,3-15.1,2.9-22.1-0.3
		c-7.1-3.2-12.4-8.9-15-16.3c-2.1-6-2.1-12.7,0-18.7c2,1.6,3.2,3.9,3.2,6.6c-0.1,0.9-0.2,2-0.2,2.9c0,10.9,7.4,20,17.5,22.5
		c4.5,1.2,9.2,1,13.7-0.5l2.1-0.7l-0.1-0.2c7.9-3.7,13.4-11.7,13.4-21.1c0-12.8-10.4-23.3-23.3-23.3c-9.2,0-17.2,5.4-20.9,13.1
		c-1.3-1.9-3.1-3.3-5.1-4.4l-2.4-1.1l-0.9,2c-3.5,7.7-3.9,16.3-1.1,24.3c3,8.5,9.1,15.2,17.4,18.9c8.2,3.7,17.3,3.8,25.7,0.4
		c12.7-5.2,20.8-18.1,20-31.9c-0.2-3,1.1-5.9,3.4-7.7c2.3,8.7,1.5,17.8-2.5,26c-4.4,9-12,15.7-21.5,18.9c-9.9,3.3-20.8,2.2-30-2.9
		l-2-1.1l-2.1,3.9l2,1.1c6.3,3.5,13.4,5.3,20.4,5.3c4.5,0,8.8-0.7,13.1-2.1c10.6-3.5,19.2-11.1,24.1-21.1
		C235.9,52,236.5,40.6,232.8,30z M198.6,38.9l6.5,16.7l-16.7-7.3l-6.5-16L198.6,38.9z"/>
</g>
<g>
	<g>
		<defs>
			<circle id="SVGID_1_" cx="402.7" cy="135.7" r="36.1"/>
		</defs>
		<clipPath id="SVGID_2_">
			<use xlink:href="#SVGID_1_"  overflow="visible"/>
		</clipPath>
		<g clip-path="url(#SVGID_2_)">
			<path fill="#010101" d="M407.6,104.2h-4c0,0,0-0.1,0-0.3c-0.1-1.3-1-4.8-7.4-12.7c-3.9-4.7-7.8-8.7-7.8-8.7l2.9-2.9
				c0.2,0.2,4.1,4.1,8.1,9c2.1,2.6,3.8,4.9,5.1,7c1.1-6.4,3.9-15.4,10.3-23.1l3.1,2.6c-9.8,11.7-10.2,26.8-10.2,28.8
				C407.6,104,407.6,104.1,407.6,104.2z"/>
			<g>
				<path fill="#010101" d="M406.7,172.9l-0.9-3.9l2-0.5c8.8-2.1,16.3-7.6,20.9-15.4c4.2-7.1,5.7-15.3,4.2-23.3
					c-2.1,1.5-3.6,4-3.6,6.7c-0.4,12.6-8.6,23.5-20.5,27.3c-8,2.5-17,1.5-24.9-2.9c-7.4-4.1-12.8-10.8-14.8-18.3
					c-2-7.4-0.9-15.2,2.9-21.9l1-1.8l2,1.2c4.2,2.4,6.5,7.3,5.7,12.2c-0.4,2.4-0.3,4.8,0.4,7.2c1.1,4.3,4.4,8.3,9,10.8
					c4.6,2.5,9.8,3.3,14.1,2.1h0.1c0.6-0.1,13.3-3.3,10.1-19.7c-0.1-0.4-1.7-8.9-1.9-19.1c-0.3-14,2-23.5,7.1-28.6l1.4-1.4l2.9,2.8
					l-1.4,1.4c-4.1,4.2-6.1,13-5.9,25.6c0.2,9.8,1.8,18.3,1.8,18.4c3.8,19.6-12.1,24.1-13.1,24.4l0,0c-5.4,1.4-11.6,0.5-17.1-2.5
					c-5.6-3.1-9.6-7.9-11-13.3c-0.7-2.9-0.9-5.9-0.4-8.8c0.5-2.7-0.5-5.2-2.3-7c-2.4,5.3-2.9,11.2-1.5,16.8
					c1.7,6.4,6.3,12.2,12.8,15.8c6.9,3.8,14.8,4.7,21.8,2.6c10.2-3.3,17.4-12.7,17.7-23.5c0.2-5.1,3.5-9.8,8.4-11.4l2.1-0.7l0.6,2.1
					c2.5,9.9,1.1,20.1-4.1,28.8c-5.2,8.7-13.5,14.9-23.4,17.3L406.7,172.9z"/>
				<path fill="#010101" d="M398.1,148.9c-6.4,0-11.5-3.7-13.2-10.1c-0.8-3.2-1.2-6.3-1.5-9.4c-0.8-7.7-1.6-12.6-7.2-14.9l-1.9-0.8
					l1.6-3.7l1.9,0.8c8,3.4,8.8,10.9,9.6,18.2c0.3,2.9,0.7,5.9,1.4,8.8c1.7,6.4,7.6,7.9,12.8,6.6h0.1c0.1,0,2.2-0.6,3.4-2.7
					c1.1-1.9,1.1-4.5,0.3-7.6V134c-0.1-0.4-8.6-37.1-31.3-48l-1.9-0.8l1.8-3.6l1.9,0.8c10.2,4.8,19.3,15.3,26.1,30
					c5,10.7,7.2,19.9,7.4,20.8c1.2,4.3,1,8-0.7,10.8c-2,3.4-5.4,4.4-5.9,4.5C401.1,148.7,399.6,148.9,398.1,148.9z"/>
				<path fill="#010101" d="M396,139.4l-0.2-2c0-0.4-2.5-28.8-27.7-43l-1.8-1l2-3.5l1.8,1c14.2,8,21.6,20.1,25.2,28.9
					c3.9,9.5,4.6,17,4.6,17.3l0.2,2L396,139.4z"/>
				<polyline fill="#010101" points="407.6,104.2 407,113 403.6,104.2 				"/>
				<path fill="#010101" d="M424.7,124.6l-1.4-1.5c-2.4-2.7-2.8-9.4-2.4-14.8c0.3-3.7,1.6-12.7,6.3-16.6l1.6-1.2l2.5,3.2l-1.6,1.2
					c-2.3,1.9-4.3,7.3-4.7,13.7c-0.6,6.4,0.5,10.8,1.3,11.7l1.4,1.5L424.7,124.6z"/>
				<path fill="#010101" d="M430.8,120.3l-0.4-2c-0.2-0.9-0.4-1.9-0.7-2.7c-1.3-5.4-2.6-11,3.4-17.2l1.4-1.5l2.9,2.8l-1.4,1.5
					c-4.6,4.7-3.6,8.4-2.4,13.5c0.2,0.9,0.5,1.9,0.7,2.9l0.4,2L430.8,120.3z"/>
			</g>
		</g>
	</g>
</g>
<path fill="#010101" d="M198,165.7c-9.5,0-18.5-3.4-25.7-10c-7.9-7.2-12.6-17.6-12.6-28.4v-2h4.1v2c0,9.7,4.1,18.9,11.2,25.3
	c6.8,6.2,15.6,9.3,24.8,8.8c8.4-0.5,16-3.9,22-9.7c-2.5-0.9-5.4-0.7-7.7,0.7c-10.8,6.9-24.7,6.1-34.6-1.7
	c-6.5-5.1-10.5-12.6-11.3-20.8c-0.7-8.3,1.9-16.2,7.4-22.4c5.1-5.9,12.3-9.4,20-10l2-0.2l0.2,2.4c0.4,4.9-2.4,9.6-7,11.7
	c-2.2,1-4.2,2.5-5.9,4.4c-6.4,7.3-5.8,18.3,1.4,24.6l1.6,1.4l-2.7,3.1l-1.6-1.4c-8.8-7.8-9.7-21.4-1.8-30.4c2-2.3,4.5-4.1,7.2-5.4
	c2.5-1.1,4.1-3.3,4.6-5.9c-5.8,1-11.1,3.9-15,8.4c-4.7,5.4-7,12.3-6.3,19.4s4.1,13.5,9.7,18c8.6,6.8,20.6,7.4,29.9,1.5
	c4.4-2.8,10.1-2.6,14.4,0.5l1.9,1.4l-1.5,1.7c-6.8,7.7-16.3,12.4-26.5,12.9C199.5,165.7,198.7,165.7,198,165.7z"/>
<path id="MAGNIFYING_GLASS_1_" fill="#010101" d="M190.5,144.9c-0.6,0.7-1.4,1.1-2.3,1.2c-1.9,0.1-3.5-1.3-3.6-3.2
	c-0.1-0.9,0.3-1.9,0.8-2.5l0,0l9.3-10.7c-1.3-2-2.2-4.3-2.4-6.8c-0.6-7.5,5.2-14.1,12.7-14.6s14.1,5.2,14.6,12.7
	c0.6,7.5-5.2,14.1-12.7,14.6c-2.5,0.2-4.9-0.4-7.1-1.4L190.5,144.9L190.5,144.9z M216.1,121.3c-0.4-5.7-5.3-10-11-9.6
	c-5.7,0.4-10,5.3-9.6,11c0.4,5.7,5.3,10,11,9.6C212.2,131.8,216.5,127,216.1,121.3z"/>
<path fill="#010101" d="M332.3,289.6l-0.7-1.9l-1.8,0.8c-4.3,1.9-6.9,6.2-6.7,10.9c-0.1,3.4-1,7.2-2.6,10.6
	c-5.5,12-17.7,15.4-26.4,12.6c-9.4-3.1-16.4-11.9-17.3-22.1c-0.6-6.6,0.9-14.2,4.3-21.5c2.4-5.2,6.6-12,13.3-14.8
	c3.8-1.7,7.4-1.7,11-0.2c6,2.6,11.7,10,15.2,19.7l0.6,1.6c0.7-1.4,1.7-2.4,2.7-3.3c-1.7-4.5-7.1-17-17-21.4c-4.5-2-9.1-1.9-13.9,0.2
	c-7.6,3.3-12.5,10.9-15.1,16.7c-2.6,5.5-5.5,14.1-4.7,23.4c1,11.5,8.9,21.6,19.7,25.1c12,3.9,25.2-2.3,30.8-14.5
	c1.8-3.9,2.8-8.1,2.9-12.1v-0.1v-0.1c-0.1-2.4,0.9-4.7,2.8-6.3c2.7,10.1-0.1,21.3-7.5,28.9c-9.3,9.6-24.7,11.8-36.4,5.2l-0.1-0.1
	c-0.2-0.1-17.6-8.7-16.1-33.9c-0.9-1.5-2.2-2.6-3.3-3.4c-1.7,14.9,2.6,24.8,6.8,30.6c4.8,6.7,10.3,9.6,11,9.9
	c5,2.8,10.7,4.3,16.5,4.3c1.6,0,3.3-0.1,4.8-0.4c7.4-1,14.2-4.6,19.4-9.8C333.5,315.3,336.5,301.6,332.3,289.6z"/>
<path fill="#010101" d="M435.9,290.4l-0.7-2l-1.9,0.8c-4.3,2-7,6.4-6.7,11.1c0.6,9.9-5.1,19-14.2,22.7c-2.4,1-5.1,1.6-7.8,1.7
	l-0.7-3.6c-0.3-2.5-0.8-5.3-1.7-6.8c-2.8-5.1-11.7-14.9-11.7-14.9s1.2,0.8,4,1.2c2.8,0.4,3.9-1.2,5.6-0.7c1.6,0.4,2.5,1.2,4.1,2.4
	c1.6,1.2,5.2,0,6.9-1.2c1.6-1.2,1.6-4.5,0.4-5.7c-1.2-1.2-8.8-8.1-8.8-8.1s24.2-22.1,23.8-22.4c-0.4-0.4-28.7,18.4-29,18
	c-0.4-0.4-2-2.5-2.9-3c-0.7-0.4-0.7-0.3-0.7-0.3c0-0.1,0.8-3.6-0.4-4l-3.6,3.6c0,0-1.6,0-5.2,2c-3.1,1.7-6.2,4.7-8.3,11.3
	c-2,5.8-2,12,0,17.8c2.3,6.6,7.7,12.3,14.8,15.4c7.4,3.3,15.8,3.6,22.8,0.7c10.5-4.4,17.1-14.9,16.5-26.3c-0.1-2.4,0.9-4.7,2.7-6.2
	c0.5,2.2,0.7,4.7,0.7,7.4c0,17.4-14.1,31.6-31.6,31.6c-17.4,0-31.6-14.1-31.6-31.6c0-6.7,2.1-13.1,6-18.5c-0.1-1.7-0.6-3.2-1.2-4.4
	l-0.3,0.4c-5.3,6.3-8.2,14.3-8.2,22.6c0,19.4,15.8,35.3,35.3,35.3c19.4,0,35.3-15.8,35.3-35.3C437.5,297.3,437,293.6,435.9,290.4z"
	/>
<path fill="#010101" d="M313.8,300.3L313.8,300.3c0-0.1,0-0.2,0-0.3c-0.7-7.1-5.8-16.1-13.4-16.3c-7.5,0.2-12.6,9.3-13.3,16.4
	c0,0.1,0,0.2,0,0.3l0,0c0,0.5-0.1,0.9-0.1,1.4c-0.1,7.5,6,14.1,13.4,14.3l0,0l0,0c7.4-0.3,13.5-6.8,13.4-14.3
	C313.9,301.3,313.9,300.8,313.8,300.3z"/>
<path fill="#010101" d="M97.5,85.4c-6.1,0-12.2-1.5-17.7-4.4l-2-1l2-3.9l2,1c7.8,4.2,17.1,5,25.6,2.3c8.4-2.7,15-8.3,18.6-15.8
	c3.1-6.2,3.7-13.2,2-19.8c-1.7,1.5-2.6,3.5-2.5,5.8c0.7,11.4-6.3,22.1-17.4,26.4c-7.4,2.9-15.6,2.7-22.8-0.6
	c-6.9-3.1-12.1-8.6-14.6-15.4L70,58l4.1-1.5l0.7,2c2.1,5.7,6.5,10.2,12.3,12.8c6,2.7,13.1,2.9,19.4,0.5c9.3-3.6,15.2-12.5,14.6-22.1
	c-0.3-4.7,2.6-9.3,7.2-11.4l2.2-0.9l0.8,2.1c3.2,8.5,2.7,17.7-1.3,25.9c-4.2,8.7-11.7,15.1-21.3,18.1
	C105.2,84.8,101.4,85.4,97.5,85.4z"/>
<path fill="#010101" d="M71.7,62.2l-0.8-2c-1.7-3.8-2.5-7.9-2.5-12.1c0-11.9,7.2-22.9,18.1-28l2.8-1.3l0.7,7c3.2,0.8,5.7,3.7,5.7,7
	c0,3.3-2.1,6-4.9,7v2.4h5.6l0.6,1.3c0.8,1.8,2,3.3,2.6,3.3c1.3,0,2.3-1.1,2.3-2.4v-2.2h7.4v-6.5h2.2c1.4,0,2.5-1.5,2.5-2.8
	c0-1.3-1.1-2.8-2.5-2.8h-2.1v-5.6v-6.1l2.9,1.2c6,2.4,11.2,6.6,14.7,11.9l1.2,1.9l-3.6,2.4l-1.5-1.9c-2.4-3.6-5.3-6.7-10-8.8v1.3
	c2.8,0.8,4.9,3.4,4.9,6.5s-2.1,5.7-4.9,6.5v7.4h-6.8c-0.9,2.8-3.5,4.6-6.5,4.6c-2.9,0-5-2.7-6-4.6h-7.6V35.6h2.3
	c1.7,0,2.8-1.1,2.8-2.8c0-1.6-1.5-2.8-3.3-2.8h-2l-0.4-4.4c-7.9,4.8-12.8,13.3-12.8,22.5c0,3.6,0.7,7.1,2.1,10.3l0.8,2L71.7,62.2z"
	/>
<g id="XMLID_16_">
	<g>
		<path fill="#010101" d="M171.9,290.5c0.2-2-0.3-4-1.2-5.7l0.6-0.1l29.8,26.9c-10.4,3.6-24.3-2.2-28-12.7
			C172,296,171.8,293.2,171.9,290.5z"/>
	</g>
	<g>
		<path fill="none" stroke="#010101" stroke-width="5.6211" stroke-linecap="square" stroke-miterlimit="10" d="M206.3,327.9
			c19.8-6.6,30.2-28.2,23.4-47.8h-0.1c-4.2,1.9-6.7,6.1-6.5,10.7c0.7,11.9-6.2,23.4-17.7,28.2c-15.4,6.3-35.1-1.9-40.6-17.3
			c-2.6-7.4-2-15,1-21.5l0.4,0.2c2,0.9,3.6,2.5,4.7,4.4c0.9,1.7,1.3,3.7,1.2,5.7c-0.2,2.7,0.1,5.6,1.1,8.3
			c3.7,10.5,17.6,16.4,28,12.7l-29.8-26.9"/>
	</g>
</g>
<polygon fill="#010101" points="196.6,307.4 192.4,306.5 196.6,287.8 178.4,293.5 177.1,289.5 202.4,281.5 "/>
<circle fill="#010101" cx="199.7" cy="283.8" r="5.5"/>
<g>
	<path fill="#010101" d="M331.6,209.2l-0.1-1.8l-3.6,0.2l0.1,1.8c0.7,12-6.3,23.2-17.4,27.6c-7.3,3-15.2,2.9-22.2-0.3
		c-7.2-3.2-12.5-9-15.1-16.4c-1.2-3.4-1.8-7-1.6-10.6c3.1,1.2,5.4,3.8,6.2,7.2c0.2,0.6,0.3,1,0.5,1.6c2,5.8,6.1,10.4,11.6,13
		c5.5,2.7,11.6,3,17.4,1l1.7-0.6l-1.2-3.4l-1.7,0.6c-4.8,1.7-10,1.4-14.6-0.8c-4.7-2.2-8.1-6.1-9.8-11c-0.2-0.5-0.3-0.8-0.4-1.3
		c-1.5-5.3-5.6-9.2-10.9-10.3l-2-0.5l-0.3,2c-0.6,4.8-0.1,9.7,1.6,14.3c2.9,8.3,8.9,14.9,17,18.5c4.2,1.9,8.6,2.8,12.9,2.8
		c4.1,0,8.2-0.8,12.2-2.4C324.5,235.4,332.5,222.8,331.6,209.2z"/>
	<path fill="#010101" d="M338.8,198.8l-0.6-1.8l-3.4,1.1l0.6,1.8c3,9.3,2.1,19.3-2.3,28c-4.5,8.7-12,15.4-21.3,18.4l-1.7,0.6
		l1.1,3.4l1.7-0.6c10.2-3.4,18.5-10.6,23.4-20.2C341.1,219.9,342,209,338.8,198.8z"/>
	<polygon fill="#010101" points="338.6,196.6 302.6,187.6 267.1,196.6 302.8,208 	"/>
</g>
<g>
	<path fill="#010101" d="M405.2,242.2L405.2,242.2h-2.1l0.2-2.1c0.5-4.7,3.8-8.8,8.4-10.1c7.3-2.1,13.1-7.6,15.7-14.8
		c0.7-2.1,1.6-3,2.7-4.2c-0.9-1.7-2.2-4.9-2-9.6c0.3-7.7-7.9-14-15.5-16.4l-1.8-0.6l1.1-3.5l1.8,0.6c9.3,3,18.5,10.3,18.1,20.1
		c-0.2,5.6,2,8.4,2.1,8.5l1,1.2l-1.1,1.2c-0.4,0.4-0.7,0.7-1,1c-1,1-1.5,1.5-2,2.9c-3,8.3-9.8,14.7-18.1,17.1
		c-2.4,0.7-4.3,2.5-5.2,4.8c11.6-0.8,21.9-8.1,26.4-19.1c0.3-0.7,1.6-4.5,4.3-6.7c-1-1.7-2.2-4.5-2.3-8.7V202h3.7v1.9
		c0.1,5.4,2.4,7.6,2.5,7.7l2.3,2l-2.9,1.1c-2.1,0.9-3.8,4.5-4.2,5.8v0.2C432,233.7,419.4,242.2,405.2,242.2z"/>
	<path fill="#010101" d="M393.7,240.8l-1.8-0.6c-9.3-3-18.5-10.3-18.1-20.1c0.2-5.6-2-8.4-2.1-8.5l-1-1.2l1.1-1.2
		c0.4-0.4,0.7-0.7,1-1c1-1,1.5-1.5,2-2.9c3-8.3,9.8-14.7,18.1-17.1c2.4-0.7,4.3-2.5,5.2-4.8c-11.6,0.8-21.9,8.1-26.4,19.1
		c-0.3,0.7-1.6,4.5-4.3,6.7c1,1.7,2.2,4.5,2.3,8.7v1.9H366v-1.9c-0.1-5.4-2.4-7.6-2.5-7.7l-2.3-2l2.9-1.1c2.1-0.9,3.8-4.5,4.2-5.8
		l0,0c5.4-13.1,18.1-21.4,32.2-21.4c0,0,0,0,0.1,0l2-0.2l-0.2,2c-0.5,4.7-3.8,8.7-8.4,10c-7.3,2.1-13.1,7.6-15.7,14.7
		c-0.7,2.1-1.6,3-2.7,4.2c0.9,1.7,2.2,4.9,2,9.6c-0.3,7.7,7.9,14,15.5,16.4l1.8,0.6L393.7,240.8z"/>
</g>
<path fill="#010101" d="M200.2,239.3l-2.5-2.5c-4.7-4.7-24.3-5.1-31.5-4.9h-1l-0.4-0.9c-8.7-19.7-0.4-37.9,0-38.6l0.4-0.8h0.9
	c10.5,0,19.2,1.3,25.6,3.8l1,0.4v1.1c-0.1,1.9-1,3.7-2.5,4.8c-1.2,0.8-2.6,1.1-3.9,0.7c-3.9-1.1-8.8-1.8-15.5-2l-1.5-0.1l0.1-3
	l1.5,0.1c7,0.3,12.1,0.9,16.3,2.1c0.5,0.1,0.9,0,1.3-0.3c0.5-0.4,0.8-0.9,1.1-1.6c-5.8-2-13.3-3.1-22.4-3.2
	c-1.5,3.6-6.6,18.5,0,34.3c2.1,0,7.4-0.1,13,0.4c7.8,0.6,13.5,1.8,17,3.6v-36.1l0.7-0.5c17.1-9.1,32.7-4.8,33.3-4.7l0.7,0.2l0.3,0.7
	c7.1,18.7,0.3,37.6,0,38.4l-0.4,1h-1c-15.3-0.3-24.8,4.6-24.9,4.6l-2.1,1.1v-2.4c0-1.6,0.3-6.8,4.1-8.2c4.1-1.6,8.4-3.2,18.1-3.4
	l1.5-0.1l0.1,3l-1.5,0.1c-9.2,0.3-13.2,1.9-17.1,3.3c-0.9,0.4-1.6,1.6-1.9,3c3.7-1.5,11.7-3.9,22.6-3.9c0.1,0,0.2,0,0.2,0
	c1.2-4,5.3-19.5-0.1-34.6c-3.1-0.7-15.9-2.8-29.6,4.2L200.2,239.3z"/>
<g>
	<rect x="135.4" y="294.3" fill="#010101" width="4.7" height="15.8"/>
	<rect x="68.4" y="294.3" fill="#010101" width="3.7" height="15.8"/>
	<path fill="#010101" d="M106.9,334l-12.1-10c-2.3-2-3.7-4.7-3.7-7.8v-37.6l-4.6,3c-1.8,1.1-2.8,3.1-2.8,5.1v25.7h-4v-25.7
		c0-3.4,1.8-6.6,4.7-8.5l10.7-6.9v44.9c0,1.9,0.8,3.5,2.2,4.7l5.6,4.6v-59.5l9.8,4.8c3.4,1.8,5.6,5.2,5.6,9v36.5l4.9-3.1
		c1.8-1.1,2.9-3.1,2.9-5.2v-16.3h4v16.4c0,3.5-1.8,6.7-4.7,8.6l-11,6.8v-43.6c0-2.3-1.3-4.5-3.3-5.5l-4-2L106.9,334L106.9,334z"/>
</g>
<path fill="none" stroke="#010101" stroke-width="3.7222" stroke-linecap="square" stroke-miterlimit="10" d="M96,148"/>
<path fill="#010101" d="M317.7,147.3h-7.4v3.7h7.4c0.4,0,0.1,0,0.1,0.5v16c0,0.7,0.1,1.3-0.6,1.3H283c-0.7,0-1.7-0.7-1.7-1.3v-16
	c0-0.4,0.7-0.5,1.1-0.5h11.1v-6.5h6.3l-4,10.5c-1,2.8,0.1,5.9,2.8,7.3l1.3,0.7l11-25.3c8-4,22.4-15.4,15.8-44.4
	c-12.8,6.1-19.6,17.7-22.4,30c-0.6-0.2-1.1-0.4-1.8-0.6c-1.2,5.2-0.2,10.9,2.6,15.4c0.1,0.2,0.3,0.4,0.4,0.6l11.4-26.1l0.7,2.2
	l-10.6,24.5l0,0l-8.5,19.4c-0.5-0.8-0.7-1.8-0.3-2.7l5.4-14.3h-14v5.6h-7.3c-2,0-3.9,2.2-3.9,4.2v16c0,2.2,2.2,4.1,4.5,4.1h34.1
	c2.2,0,3.3-1.9,3.3-4.1v-16C320.5,149.5,319.6,147.3,317.7,147.3z"/>
<path fill="#010101" d="M134.3,118.8c0-15-14.6-27.3-32.5-27.3s-32.5,12.2-32.5,27.3c0,7.6,3.9,15,10.6,20.2l0.9,0.7l1-0.7
	c2.1-1.5,2.7-3.3,2.8-4.5c0.3-3.2-2.1-5.7-2.5-6c-4.4-4.3-5.7-10.8-3.2-16.4c1.7-3.6,4.9-6.5,9-8l1.6-0.6l-1.1-3.2l-1.6,0.6
	c-4.9,1.8-8.9,5.3-11,9.8c-3.2,6.8-1.6,14.9,3.8,20.1c0.5,0.5,1.6,2,1.5,3.3c0,0.5-0.2,0.8-0.5,1.2c-5.3-4.5-8.3-10.4-8.3-16.7
	c0-13.2,13.1-23.9,29.1-23.9s29.1,10.7,29.1,23.9c0,3.7-1.3,7.5-3.9,11.1c-5.2,7.3-17.1,14.9-33.7,12.5l-1.2-0.2l-0.6,1.1
	c0,0.1-3.3,6.7-11,8.5c1.6-1.2,3.3-2.8,4.8-4.7l1-1.3l-2.6-2.1l-1,1.3c-4.2,5.2-9.2,7.3-9.2,7.3l-6,2.7l6.6,0.7
	c0.9,0.1,1.8,0.2,2.6,0.2c6.8,0,11.4-3.1,14.3-5.9l0,0c3.3,2.7,8.6,5.7,16.4,5.6c0,0,7.9,8.6,15.5,6.8c0,0-6.6-5.7-6-8.6
	c0,0,16.3-6.1,12-20.4c0.3-0.4,0.7-0.7,0.9-1.2C132.7,127.7,134.3,123.2,134.3,118.8z M93.1,147C93.1,147.1,93.1,147.1,93.1,147
	C93.1,147.1,93.1,147.1,93.1,147z M92.8,147.4L92.8,147.4C92.8,147.5,92.8,147.4,92.8,147.4z M92.4,148L92.4,148L92.4,148z
	 M91.9,148.6L91.9,148.6L91.9,148.6z M91.5,149L91.5,149C91.5,149.1,91.5,149,91.5,149z M93.5,146.6
	C93.5,146.6,93.5,146.5,93.5,146.6C93.5,146.5,93.5,146.6,93.5,146.6z M93.7,146.2C93.7,146.2,93.7,146.1,93.7,146.2
	C93.8,146.1,93.8,146.1,93.7,146.2z M100.5,146c-0.4,0-0.7,0-1.1,0C99.7,146.1,100.1,146.1,100.5,146z M117,142.1
	C117,142.1,116.9,142.1,117,142.1C117,142.2,117,142.2,117,142.1z M116.2,142.6c-0.1,0-0.1,0.1-0.2,0.1
	C116,142.7,116.1,142.6,116.2,142.6z M115.3,143c-0.1,0-0.2,0.1-0.3,0.1C115.1,143.1,115.2,143.1,115.3,143z M114.3,143.4
	c-0.1,0-0.2,0.1-0.3,0.1C114.1,143.4,114.3,143.4,114.3,143.4z M113.3,143.7c-0.1,0-0.2,0.1-0.4,0.1
	C113.1,143.8,113.2,143.8,113.3,143.7z M112.3,144.1c-0.1,0-0.3,0.1-0.4,0.1C112.1,144.2,112.2,144.1,112.3,144.1z M111.4,144.4
	c-0.1,0-0.3,0.1-0.4,0.1C111.1,144.5,111.2,144.5,111.4,144.4z M110.3,144.7c-0.2,0-0.3,0.1-0.5,0.1
	C110,144.7,110.2,144.7,110.3,144.7z M109.2,144.9c-0.2,0-0.3,0.1-0.5,0.1C108.9,145,109.1,145,109.2,144.9z M108.2,145.2
	c-0.2,0-0.4,0.1-0.5,0.1C107.8,145.2,108,145.2,108.2,145.2z M107.1,145.4c-0.2,0-0.4,0.1-0.6,0.1
	C106.8,145.5,106.9,145.4,107.1,145.4z M106.1,145.6c-0.2,0-0.4,0.1-0.6,0.1C105.7,145.7,105.9,145.6,106.1,145.6z M104.9,145.8
	c-0.2,0-0.4,0.1-0.6,0.1C104.6,145.8,104.8,145.8,104.9,145.8z M103.8,145.9c-0.2,0-0.4,0-0.7,0.1
	C103.5,146,103.6,145.9,103.8,145.9z M102.7,146c-0.2,0-0.5,0-0.7,0C102.2,146,102.5,146,102.7,146z M101.6,146c-0.3,0-0.5,0-0.7,0
	C101.1,146,101.3,146,101.6,146z"/>
<path fill="#010101" d="M138.2,192.9h-22.3v-2.8H92.6v2.8H70.2v46.5h17.1c-6.3-6.5-8.7-16.4-5.6-25.5l0.1-0.1c1.4,0.7,2.6,1.7,3.3,3
	c-0.4,1.6-0.7,3.3-0.7,4.9c0,2,0.3,3.8,0.8,5.6h-0.1l0.5,1.3c1.9,5.4,5.8,9.6,11,11.9c5.2,2.3,10.9,2.4,16.2,0.3
	c8-3.3,13.1-11.4,12.7-20.1c-0.1-1.9,0.7-3.7,2.1-4.9c1.5,5.5,0.9,11.2-1.6,16.4c-2.8,5.7-7.6,9.9-13.6,11.9
	c-6.2,2-13.1,1.4-18.9-1.8l-1.2-0.7l-1.4,2.4l1.2,0.7c4,2.2,8.5,3.3,12.8,3.3c2.8,0,5.6-0.3,8.3-1.1c4.6-1.5,8.5-4.7,11.5-7.5h13.2
	V192.9z M104.9,239.2c-9.7,0-17.5-7.8-17.5-17.5s7.8-17.5,17.5-17.5c9.7,0,17.5,7.8,17.5,17.5S114.6,239.2,104.9,239.2z
	 M127.9,212.4c-1.5,0.7-2.7,1.8-3.6,3.1c0,0,0,0,0-0.1C125.1,214.2,126.3,213.1,127.9,212.4l1.4-0.7l0,0L127.9,212.4z M130.2,204.9
	c-1.6,0-2.8-1.2-2.8-2.8c0-1.6,1.2-2.8,2.8-2.8s2.8,1.2,2.8,2.8C133,203.6,131.7,204.9,130.2,204.9z"/>
<g>
	<path fill="#010101" d="M163.2,653.9v31.8c0,0.7,0.6,1.4,1.4,1.4h18.7c0.2,0,0.5,0.1,0.7,0.2l7.4,4.8c0.9,0.6,2.1-0.1,2.1-1.2
		v-31.8c0-0.5-0.3-0.9-0.7-1.3l-8.9-5.2c-0.2-0.1-0.4-0.2-0.7-0.2h-18.8C163.8,652.4,163.2,653,163.2,653.9"/>
	<path fill="#010101" d="M229,653.9v31.8c0,0.7-0.6,1.4-1.4,1.4h-18.7c-0.2,0-0.5,0.1-0.7,0.2l-7.4,4.8c-0.9,0.6-2.1-0.1-2.1-1.2
		v-31.8c0-0.5,0.3-0.9,0.7-1.3l8.9-5.2c0.2-0.1,0.4-0.2,0.7-0.2h18.8C228.3,652.4,229,653,229,653.9"/>
</g>
<g>
	<path fill="#010101" d="M219,572.6h-4.7h-3v31.3c0,0.5-0.3,1-0.7,1.4l-10,5.9c-0.2,0.1-0.5,0.2-0.7,0.2h14.5h4.7
		c0.8,0,1.6-0.7,1.6-1.6v-35.6C220.5,573.3,219.8,572.6,219,572.6z"/>
	<g>
		<path fill="#010101" d="M192.6,572.4l-8.3-5.3c-1-0.6-2.3,0.1-2.3,1.4v4.3h11.5C193.1,572.6,192.8,572.5,192.6,572.4z"/>
		<path fill="#010101" d="M203.3,567l-8.3,5.3c-0.2,0.2-0.5,0.2-0.8,0.2h-21c-0.8,0-1.6,0.7-1.6,1.6v35.6c0,0.8,0.7,1.6,1.6,1.6h21
			c0.3,0,0.5-0.1,0.7-0.2l10-5.9c0.5-0.3,0.7-0.8,0.7-1.4v-35.6C205.6,567.1,204.3,566.4,203.3,567z"/>
	</g>
</g>
<g>
	<path fill="#010101" d="M110.9,586.9H99.1v4.7c0,0.2-0.1,0.4-0.2,0.6l-5,8.5c-0.2,0.4-0.7,0.6-1.2,0.6H73.9v13.2
		c0,0.7,0.6,1.4,1.4,1.4h30.5c0.7,0,1.4-0.6,1.4-1.4v-17.9c0-0.2,0.1-0.5,0.2-0.7l4.6-7.1C112.5,588,111.9,586.9,110.9,586.9z"/>
	<path fill="#010101" d="M92.9,567.4H62.4c-0.7,0-1.4,0.6-1.4,1.4v17.9c0,0.2-0.1,0.5-0.2,0.7l-4.6,7.1c-0.5,0.8,0.1,2,1.2,2h30.5
		c0.5,0,0.9-0.2,1.2-0.6l5-8.5c0.1-0.2,0.2-0.4,0.2-0.6v-18C94.3,568,93.7,567.4,92.9,567.4"/>
</g>
<g>
	<path fill="#010101" d="M310.9,600.5c-0.2-0.1-0.4-0.2-0.7-0.2h-17.9c-0.7,0-1.4-0.6-1.4-1.4v-20.7l-2.6-1.7c-0.8-0.5-2,0.1-2,1.2
		v30.4c0,0.5,0.2,0.9,0.6,1.2l8.5,5c0.2,0.1,0.4,0.2,0.6,0.2h18c0.7,0,1.4-0.6,1.4-1.4v-9.9L310.9,600.5z"/>
	<path fill="#010101" d="M295.8,563.6v30.5c0,0.7,0.6,1.4,1.4,1.4h17.9c0.2,0,0.5,0.1,0.7,0.2l7.1,4.6c0.8,0.5,2-0.1,2-1.2v-30.5
		c0-0.5-0.2-0.9-0.6-1.2l-8.5-5c-0.2-0.1-0.4-0.2-0.6-0.2h-18C296.4,562.2,295.8,562.8,295.8,563.6"/>
</g>
<g>
	<path fill="#010101" d="M445.1,740.8l-19.9-13.4c-0.2-0.1-0.3-0.2-0.5-0.2l0,0c-0.1,0-0.2,0-0.3,0s-0.2,0-0.3,0l0,0
		c-0.2,0-0.3,0.1-0.5,0.2l-19.9,13.4c-0.4,0.3-0.6,0.7-0.6,1.3v9.9c0,1.3,1.3,1.9,2.3,1.3l19.2-12.9l19.2,12.9
		c0.9,0.6,2.3-0.1,2.3-1.3v-9.9C445.8,741.7,445.6,741.1,445.1,740.8z"/>
	<path fill="#010101" d="M422.1,750.2l-19.2,12.9l-19.2-12.9c-0.9-0.6-2.3,0.1-2.3,1.3v9.9c0,0.5,0.2,0.9,0.6,1.3l19.9,13.4
		c0.2,0.1,0.3,0.2,0.5,0.2l0,0c0.1,0,0.2,0,0.3,0s0.2,0,0.3,0l0,0c0.2,0,0.3-0.1,0.5-0.2l19.9-13.4c0.4-0.3,0.6-0.7,0.6-1.3v-9.9
		C424.3,750.3,423,749.5,422.1,750.2z"/>
</g>
<g>
	<path fill="#010101" d="M110.2,740.3h-7.4c0,0.3-0.1,0.7-0.3,1l-16.6,24.8l-0.8,4.3c-0.4,2,0.9,3.9,2.8,3.9h22.6
		c1.6,0,2.8-1.5,2.8-3.1v-27.7C113.1,741.7,111.8,740.3,110.2,740.3z"/>
	<path fill="#010101" d="M71.7,774.6H56.9c-1.8,0-2.9-2-1.9-3.5l20-29.9c0.4-0.6,1.2-1,1.9-1h14.8c1.8,0,2.9,2,1.9,3.5l-20,29.9
		C73.3,774.2,72.6,774.6,71.7,774.6"/>
</g>
<g>
	<path fill="#010101" d="M306.8,453.6c0-1.3-1.4-2-2.3-1.3L284.2,466c-0.4,0.3-0.6,0.7-0.6,1.3v6.1v3.9v16.9c0,0.3,0.2,0.6,0.4,0.8
		l5.8,3.5c0.1,0.1,0.3,0.1,0.4,0.1h12.3c0.5,0,0.9-0.4,0.9-0.9v-20.8c0-0.5-0.4-0.9-0.9-0.9h-12.3c-0.1,0-0.2,0-0.3-0.1l16.2-10.8
		c0.4-0.3,0.6-0.7,0.6-1.3v-10.1H306.8z"/>
	<path fill="#010101" d="M329.6,479.3l-5.8-3.5c-0.1-0.1-0.3-0.1-0.4-0.1h-12.3c-0.5,0-0.9,0.4-0.9,0.9v20.8c0,0.5,0.4,0.9,0.9,0.9
		h12.3c0.1,0,0.2,0,0.3,0.1l-16.2,10.8c-0.4,0.3-0.6,0.7-0.6,1.3v10.1c0,1.3,1.4,2,2.3,1.3l20.2-13.6c0.4-0.3,0.6-0.7,0.6-1.3v-6.1
		v-3.9v-16.9C330.1,479.9,329.9,479.5,329.6,479.3z"/>
</g>
<g>
	<path fill="#010101" d="M196.1,763.3l-11.6-17.4c-0.3-0.5-0.9-0.8-1.6-0.8h-12.6c-1.6,0-2.4,1.7-1.6,2.9l17.1,25.4
		c0.3,0.5,0.9,0.8,1.6,0.8h1.5L196.1,763.3z"/>
	<path fill="#010101" d="M206.3,732.5c0,4.6-3.8,8.3-8.3,8.3c-4.6,0-8.3-3.8-8.3-8.3s3.8-8.3,8.3-8.3
		C202.6,724.3,206.3,727.9,206.3,732.5"/>
	<path fill="#010101" d="M209.9,774.4h-12.6c-1.6,0-2.4-1.7-1.6-2.9l17.1-25.4c0.3-0.5,0.9-0.8,1.6-0.8H227c1.6,0,2.4,1.7,1.6,2.9
		l-17.1,25.4C211.1,774,210.5,774.4,209.9,774.4"/>
</g>
<g>
	<path fill="#010101" d="M279.6,666.6v28.3c0,0.7,0.5,1.3,1.3,1.3h16.7c0.2,0,0.4,0.1,0.6,0.2l6.6,4.3c0.8,0.5,1.9-0.1,1.9-1v-28.2
		c0-0.4-0.2-0.8-0.6-1l-7.9-4.6c-0.2-0.1-0.4-0.2-0.6-0.2h-16.7C280.2,665.3,279.6,665.8,279.6,666.6"/>
	<path fill="#010101" d="M323.5,660.7h-16.7c-0.2,0-0.4,0.1-0.6,0.2l-1.8,1l6.2,3.7c0.4,0.2,0.6,0.6,0.6,1v24.9h12.3
		c0.6,0,1.3-0.5,1.3-1.3V662C324.6,661.2,324.1,660.7,323.5,660.7z"/>
	<path fill="#010101" d="M297.4,651.7c0,4.9-4,9-9,9c-4.9,0-9-4-9-9s4-9,9-9C293.3,642.7,297.4,646.6,297.4,651.7"/>
	<path fill="#010101" d="M324.6,647.1c0,4.9-4,9-9,9c-4.9,0-9-4-9-9c0-5,4-9,9-9S324.6,642,324.6,647.1"/>
</g>
<g>
	<path fill="#010101" d="M233.1,485.8l-7.3-4.3c0,0-0.1,0-0.1-0.1c-0.2-0.1-0.4-0.2-0.6-0.2h-15.5c-0.2,0-0.4-0.1-0.6-0.2l-6.2-4
		c-0.7-0.5-1.8,0.1-1.8,0.9v26.3c0,0.4,0.2,0.8,0.5,1l7.3,4.3c0,0,0.1,0,0.1,0.1c0.2,0.1,0.4,0.2,0.6,0.2H225c0.2,0,0.4,0.1,0.6,0.2
		l6.2,4c0.7,0.5,1.8-0.1,1.8-0.9v-26.3C233.6,486.5,233.4,486.1,233.1,485.8z"/>
	<path fill="#010101" d="M171.5,508.8v-26.3c0-0.6,0.5-1.2,1.2-1.2h15.5c0.2,0,0.4-0.1,0.6-0.2l6.2-4c0.7-0.5,1.8,0.1,1.8,0.9v26.3
		c0,0.4-0.2,0.8-0.5,1l-7.3,4.3c-0.2,0.1-0.4,0.1-0.5,0.1h-15.5C172,510,171.5,509.4,171.5,508.8"/>
	<path fill="#010101" d="M207,464.3c0,4.6-3.8,8.4-8.4,8.4c-4.6,0-8.4-3.8-8.4-8.4c0-4.6,3.8-8.4,8.4-8.4
		C203.3,455.9,207,459.7,207,464.3"/>
</g>
<path fill="#010101" d="M324.9,748.3l-15.6-23.2c-0.3-0.5-0.8-0.7-1.5-0.7h-0.2h-11.2h-0.2c-0.6,0-1.2,0.3-1.5,0.7l-15.6,23.2
	c-0.2,0.3-0.3,0.6-0.3,1c0,0.3,0.1,0.7,0.3,1l15.6,23.2c0.3,0.5,0.8,0.7,1.5,0.7h0.2h11.2h0.2c0.6,0,1.2-0.3,1.5-0.7l15.6-23.2
	c0.2-0.3,0.3-0.6,0.3-1C325.3,748.9,325.1,748.6,324.9,748.3z M302.2,766.6c-4.2,0-7.6-3.4-7.6-7.6s3.4-7.6,7.6-7.6s7.6,3.4,7.6,7.6
	C309.8,763.3,306.4,766.6,302.2,766.6z"/>
<g>
	<path fill="#010101" d="M427.5,586.7l-27.6-5.7c-1.5-0.3-2.5-1.5-2.5-2.8v-16.9c0-1.6,1.5-2.8,3.1-2.8h27.6c1.8,0,3.1,1.3,3.1,2.8
		V584C431.4,585.8,429.5,587.2,427.5,586.7"/>
	<path fill="#010101" d="M401.3,587l27.6,5.7c1.5,0.3,2.5,1.5,2.5,2.8v16.9c0,1.6-1.5,2.8-3.1,2.8h-27.6c-1.8,0-3.1-1.3-3.1-2.8
		v-22.6C397.4,587.9,399.3,586.5,401.3,587"/>
</g>
<g>
	<path fill="#010101" d="M442.7,672.4l4-6c0.9-1.4-0.1-3.1-1.8-3.1h-8.4l-8.2-12.2c-0.4-0.5-1-0.9-1.8-0.9H425l-7.9,11.7l7,10.5
		l-12.8,19.1c-0.9,1.4,0.1,3.1,1.8,3.1h13.5c0.7,0,1.4-0.3,1.8-0.9l8.2-12.2h8.4c1.7,0,2.6-1.8,1.8-3.1L442.7,672.4z"/>
	<path fill="#010101" d="M405,672.3l12.8-19.1c0.9-1.4-0.1-3.1-1.8-3.1h-13.5c-0.7,0-1.4,0.3-1.8,0.9l-8.3,12.3h-8.3
		c-1.7,0-2.6,1.8-1.8,3.1l4,6l-4,6c-0.9,1.4,0.1,3.1,1.8,3.1h8.3l8.3,12.3c0.4,0.5,1,0.9,1.8,0.9h1.5l7.9-11.7L405,672.3z"/>
</g>
<path fill="#010101" d="M110.5,654.2H90.8c-0.3,0-0.5-0.1-0.7-0.2l-7.9-5c-0.9-0.6-2.2,0.1-2.2,1.3v4.1c-0.2-0.1-0.3-0.1-0.5-0.1
	H59.8c-0.8,0-1.5,0.6-1.5,1.5v33.5c0,0.8,0.6,1.5,1.5,1.5h19.7c0.3,0,0.5,0.1,0.7,0.2l7.9,5c0.9,0.6,2.2-0.1,2.2-1.3v-4.1
	c0.2,0.1,0.3,0.1,0.5,0.1h19.7c0.8,0,1.5-0.6,1.5-1.5v-33.5C112,654.8,111.4,654.2,110.5,654.2z M76.6,680.2c-4.4,0-8-3.6-8-8
	c0-4.4,3.6-8,8-8c4.4,0,8,3.6,8,8C84.5,676.6,81,680.2,76.6,680.2z"/>
<g>
	<g>
		<path fill="#010101" d="M125.6,477h-14.3c-0.7,0-1.5,0.3-1.8,0.9l-7.9,11.7l9.8,14.5l16-23.9C128.5,478.8,127.4,477,125.6,477z"/>
		<path fill="#010101" d="M92.1,504.2l-1.7,2.5c-0.9,1.4,0.1,3.3,1.8,3.3H97c-0.7,0-1.5-0.3-1.8-0.9L92.1,504.2z"/>
	</g>
	<g>
		<path fill="#010101" d="M70.2,489.7L62.3,478c-0.4-0.6-1-0.9-1.8-0.9H46.2c-1.8,0-2.7,1.9-1.8,3.3l16,23.9L70.2,489.7z"/>
		<path fill="#010101" d="M79.9,504.2l-3.3,4.8c-0.4,0.6-1,0.9-1.8,0.9h4.8c1.8,0,2.7-1.9,1.8-3.3L79.9,504.2z"/>
	</g>
	<path fill="#010101" d="M73.7,491.6l-10.2,15.1c-0.9,1.4,0.1,3.3,1.8,3.3h14.3c0.7,0,1.5-0.3,1.8-0.9l2-2.9L73.7,491.6z"/>
	<path fill="#010101" d="M108.2,506.7l-12.6-18.8l5.1-7.7c0.9-1.4-0.1-3.3-1.8-3.3H87.3h-2.4H73.1c-1.8,0-2.7,1.9-1.8,3.3L90.6,509
		c0.4,0.6,1,0.9,1.8,0.9h14C108.1,510,109.2,508.1,108.2,506.7z"/>
</g>
<path fill="#010101" d="M411.4,418.1c-4.1,0-7.3-3.3-7.3-7.3s3.4-7.3,7.3-7.3c4.1,0,7.3,3.3,7.3,7.3
	C418.7,414.7,415.5,418.1,411.4,418.1 M436.4,397.7h-14.9h-0.1c-0.1,0-0.2,0-0.2,0h-19.6c-1.4,0-2.5,1.3-2.5,2.7v4.7v19.2V436
	c0,1,1.2,1.8,2.1,1.2l7.2-4.6c0.2-0.1,0.4-0.2,0.7-0.2h18.1c0.7,0,1.4-0.6,1.4-1.4v-15.3l9.8-14.5
	C439.4,399.6,438.2,397.7,436.4,397.7"/>
<path fill="#010101" d="M495.3,422.8c-4.4,0-7.9-3.6-7.9-7.9c0-4.4,3.6-7.9,7.9-7.9c4.4,0,7.9,3.6,7.9,7.9
	C503.3,419.2,499.7,422.8,495.3,422.8 M519.1,405.6l-8,0.1v-8.4c0-0.8-0.6-1.5-1.5-1.5h-9.1h-10.4h-10.5c-1.7,0-2.9,1.8-2.6,3.7
	l1.5,7.3c-0.1,0.1-0.2,0.1-0.2,0.2l-8.7,13.3c-1,1.6,0,3.8,2,3.8l8-0.1v11.7c0,1.2,1.3,1.9,2.2,1.3l7.8-5c0.2-0.1,0.5-0.2,0.7-0.2
	h19.5c0.8,0,1.5-0.6,1.5-1.5v-6.8c0.4-0.2,0.9-0.4,1.2-0.9l8.7-13.3C522.1,407.7,521,405.6,519.1,405.6"/>
<path fill="#010101" d="M559.3,418.1c-4,0-7.2-3.3-7.2-7.2s3.3-7.2,7.2-7.2c4,0,7.2,3.3,7.2,7.2S563.1,418.1,559.3,418.1
	 M595.5,398.2h-18.4h-0.7h-29.5c-0.7,0-1.4,0.6-1.4,1.3v17.8c0,0.2,0.1,0.4,0.2,0.6l4.9,8.4c0.2,0.4,0.7,0.6,1.2,0.6h17.1l6.3,9.3
	c0.4,0.6,1.2,0.9,1.9,0.9h14.6c1.8,0,2.8-1.9,1.9-3.4l-4.7-7h6.7c1.4,0,2.4-1.3,2.4-2.7v-23.4C597.9,399.4,596.8,398.2,595.5,398.2"
	/>
<path fill="#010101" d="M422.6,508.4c-3.7,0-6.7-2.9-6.7-6.7c0-3.7,2.9-6.7,6.7-6.7c3.7,0,6.7,2.9,6.7,6.7
	C429.3,505.5,426.4,508.4,422.6,508.4 M445.1,511.9l-4.4-21.6c-0.2-1.2-1.2-2-2.2-2h-4.7h-0.3l-3.5-17.4c-0.3-1.6-2.2-2.1-3.5-0.9
	l-9.5,9.5c-0.5,0.5-0.7,1.2-0.6,1.9l1.4,7h-12.1c-0.7,0-1.3,0.5-1.3,1.2V506c0,0.2-0.1,0.4-0.2,0.6l-4.2,6.5c-0.5,0.8,0.1,1.9,1,1.9
	H425h3.9h13.7C444.4,514.9,445.5,513.4,445.1,511.9"/>
<path fill="#010101" d="M516.5,485.8l-11.2-2.1c-0.6-0.1-1.2,0.1-1.6,0.5l-5.9,5.9l-11-11c-0.4-0.4-1-0.4-1.5,0l-9.9,9.9
	c-0.1,0.1-0.2,0.3-0.2,0.4l-1.9,7.4c-0.1,0.3,0,0.7,0.3,1l16.8,16.7c0.5,0.5,1.5,0.3,1.7-0.3c0.1-0.1,0.3-0.1,0.4-0.2l10.6-10.6
	c0,0,0-0.1,0.1-0.1l14.3-14.5C518.5,487.7,517.8,486.2,516.5,485.8"/>
<path fill="#010101" d="M519.1,468c-3.1,0-5.7,2.5-5.7,5.7c0,3.1,2.5,5.7,5.7,5.7s5.7-2.5,5.7-5.7C524.8,470.6,522.2,468,519.1,468"
	/>
<path fill="#010101" d="M592.9,474.8l0.1-12.9c0-1.6-1.7-2.5-2.9-1.7l-26.2,17.3c-0.5,0.3-0.8,0.9-0.8,1.7v6.6v6.3v6.4
	c0,1,0.7,1.9,1.9,2.1l2.4,0.5l-0.1,12.6c0,0.9,0.9,1.5,1.8,1l6.3-4c0.2-0.1,0.4-0.2,0.6-0.2l15.8,0.1c0.6,0,1.2-0.5,1.2-1.2
	l0.1-26.7c0-0.6-0.5-1.2-1.2-1.2h-7.2l7.6-5C592.6,476.1,592.9,475.5,592.9,474.8 M575.8,459.9c0,3.6-2.9,6.4-6.4,6.4
	c-3.6,0-6.4-2.9-6.4-6.4c0-3.6,2.9-6.4,6.4-6.4C573,453.5,575.8,456.4,575.8,459.9"/>
</svg>
